<svg xmlns="http://www.w3.org/2000/svg" viewBox="0 0 155.38 119.25"><defs><style>.cls-1{stroke:#000;stroke-miterlimit:10;stroke-width:4px;}</style></defs><g id="Vrstva_2" data-name="Vrstva 2"><g id="Vrstva_1-2" data-name="Vrstva 1"><path class="cls-1" d="M153.38,31.82c0-5.92-4-11.4-11.21-11.25-11.35.23-22.71.06-34.06.06H106c-1-4-1.88-7.94-2.81-11.84A8.33,8.33,0,0,0,94.63,2H60.56a8.19,8.19,0,0,0-8.19,6.13c-.37,1.25-.62,2.53-.93,3.79-.7,2.89-1.41,5.79-2.09,8.59H34.15c0-1.39,0-2.68,0-4,0-1.13-.47-1.64-1.64-1.63q-5.79.06-11.58,0c-1.18,0-1.65.54-1.65,1.64v4.07H12.8c-6.6,0-10.75,4.16-10.75,10.72,0,25,.08,50.08,0,75.13a10.63,10.63,0,0,0,10.8,10.76q64.8-.18,129.62,0a10.72,10.72,0,0,0,11-11Q153.13,69,153.38,31.82ZM21.86,17.44h9.8v2.95h-9.8Zm129,90.39c-.19,4.25-3.65,7-8.15,7H12.2a7.49,7.49,0,0,1-7.71-7.09c-.19-5.61,0-11.23,0-17.1H6.31q18,0,35.95,0a2.62,2.62,0,0,1,2.48,1.27c9,12.75,21.41,18.69,36.9,17.34,12.26-1.08,21.92-7.17,28.94-17.31a2.59,2.59,0,0,1,2.47-1.3q18,0,36.11,0h1.74C150.9,96.5,151.09,102.18,150.84,107.83ZM115,69.9C114.9,90.32,98.23,107.05,78,107A37.32,37.32,0,1,1,115,69.9Zm-2.9-20.2h38.77V88.11H113C119.16,75.21,118.91,62.44,112.06,49.7ZM42.41,88.15H4.54V49.69H43.27C36.49,62.36,36.13,75.14,42.41,88.15Zm108.52-41h-2c-12.26,0-24.53,0-36.79,0a3.31,3.31,0,0,1-3-1.46C101.13,35.32,90.42,29.94,77.3,30c-12.71.11-23.11,5.41-31,15.42a3.79,3.79,0,0,1-3.36,1.69c-12.09-.07-24.19,0-36.28,0H4.42v-6c0-3.35,0-6.7,0-10.06,0-4.7,3.2-7.93,7.89-7.94,12.15,0,24.3,0,36.45,0,2.47,0,2.46,0,3-2.43Q53.15,15,54.5,9.41a6.07,6.07,0,0,1,6.35-5H94.57a6,6,0,0,1,6.26,4.92c.94,3.85,1.91,7.69,2.72,11.57a2.36,2.36,0,0,0,2.75,2.22c12-.06,24,.12,35.94-.09,5.8-.1,8.92,4.11,8.74,8.76C150.78,36.8,150.93,41.85,150.93,47.11Z"/><path d="M125.21,28.56a4.1,4.1,0,1,0,4.12,4.06A4.14,4.14,0,0,0,125.21,28.56Zm1.9,4.52c-.65.43-1.37,1.29-1.94,1.2s-1.18-1.05-1.76-1.62c.59-.57,1.11-1.5,1.77-1.6s1.28.76,1.94,1.19C127.11,32.52,127.11,32.8,127.11,33.08Z"/><path d="M138.47,28.56a4.1,4.1,0,0,0-.26,8.2,4.1,4.1,0,1,0,.26-8.2Zm1.87,4.56c-.67.42-1.41,1.26-2,1.15s-1.16-1.06-1.73-1.65c.6-.56,1.15-1.47,1.81-1.56s1.28.78,1.92,1.23C140.35,32.57,140.35,32.84,140.34,33.12Z"/><path d="M78.15,38.25A31.59,31.59,0,0,0,46.22,69.77C46.09,86.92,60.15,101,77.6,101.14a31.45,31.45,0,0,0,.55-62.89Zm0,60.58a29.14,29.14,0,1,1,28.6-29.3A29,29,0,0,1,78.17,98.83Z"/><path d="M74.93,44.12c.28.28,1,.71,1,1.12a1.75,1.75,0,0,1-1.09,1.31,25.37,25.37,0,0,0-16,9.83c-.3.4-1.2.34-1.82.5-.07-.55-.41-1.3-.17-1.63C61.2,49.11,67.17,45.55,74.93,44.12Z"/><path d="M51.86,67.09c.73-2.37,1.3-4.49,2-6.54.16-.42,1-.59,1.55-.87.2.62.67,1.3.55,1.86a48,48,0,0,1-1.56,5.67c-.19.54-.89.9-1.36,1.34Z"/></g></g></svg>