<svg xmlns="http://www.w3.org/2000/svg" viewBox="0 0 149.36 156.33"><g id="Vrstva_2" data-name="Vrstva 2"><g id="Vrstva_1-2" data-name="Vrstva 1"><g id="Vrstva_2-2" data-name="Vrstva 2"><g id="Vrstva_1-2-2" data-name="Vrstva 1-2"><path d="M30.53,156.32a9.07,9.07,0,0,1-1.81-1.85,2.91,2.91,0,0,1,1.52-4,3.26,3.26,0,0,1,1.48-.28H41.78a25.06,25.06,0,0,1,.2-3.57A9.73,9.73,0,0,1,51.8,139h8l3.78-15H13.7c-6.54,0-11.67-3.62-13.22-9.36A16,16,0,0,1,0,110.52V33.8c0-8.19,5.48-13.47,14.13-13.47H98.21a3.65,3.65,0,0,0,3.47-1.79c3-4.35,6-8.7,9.14-12.91A13.6,13.6,0,0,1,124.6.27a13.28,13.28,0,0,1,11.46,10.21c.82,3,.46,5.08-1.44,9.75.56,0,1.06.08,1.56.1,7.84.34,13.17,5.55,13.18,13V111a12.47,12.47,0,0,1-9.89,12.51,18.8,18.8,0,0,1-4.3.44H85.79l3.77,15h8a9.65,9.65,0,0,1,9.77,7.52,27,27,0,0,1,.29,3.7h9.88a3.19,3.19,0,0,1,3.45,2.86,3,3,0,0,1-1.55,2.82l-.6.46ZM96,26.56H93.85c-26.58,0-53.16.06-79.74-.07-4.44,0-7.61,2.73-7.58,7.12.14,18.56.06,37.13.06,55.69A13.57,13.57,0,0,0,6.67,91h5.75a32.59,32.59,0,0,1,3.7.09,3.09,3.09,0,0,1,2.76,3.44,3.15,3.15,0,0,1-2.76,2.62,16.06,16.06,0,0,1-2.4.09H6.65c0,5.27-.15,10.3.11,15.31.06,1.27,1.25,2.64,2.26,3.68,1.4,1.46,3.45,1.43,5.41,1.43H135a17,17,0,0,0,2.57-.14,5.91,5.91,0,0,0,5.15-5.14c.13-4.93,0-9.86,0-14.79,0-.08-.13-.16-.29-.34H43.12a10.75,10.75,0,0,1-2.4-.18,3,3,0,0,1-2.36-3.62,3.06,3.06,0,0,1,2-2.13,7.74,7.74,0,0,1,2.53-.3h99.88V32.23a6.17,6.17,0,0,0-6.23-5.68c-2,0-4,.06-6,0a2.58,2.58,0,0,0-2.29,1.07Q115,43,101.58,58.39c-1.28,1.46-2.16,2.78-1.23,4.73a5.78,5.78,0,0,1,.3,2.1c.56,8-4.75,14.48-11.52,15.73a45.92,45.92,0,0,1-9.59.41c-4.74-.14-9.17.27-12.88,3.53a3.24,3.24,0,0,1-4.4-.11,2.88,2.88,0,0,1-.8-1.48c-1.65-5.76-2.67-11.58-2-17.6,1.24-10.63,9-17.56,20.44-18a2.62,2.62,0,0,0,1.77-1c1.86-2.48,3.58-5,5.31-7.49Zm10.58,16.38,5.81-6.71C117.64,30.15,123,24.1,128.15,18a6.9,6.9,0,0,0-1-10.09A6.76,6.76,0,0,0,126,7.12a7.79,7.79,0,0,0-10.23,2.63q-9,12.69-18,25.42c-.23.33-.41.68-.68,1.11ZM66.61,77a50.49,50.49,0,0,1,6.57-1.52c3.08-.28,6.2-.17,9.31-.18,2.68,0,5.4.15,7.74-1.42,4.29-2.84,4.54-7.58,3.16-11.48a2.93,2.93,0,0,0-1.15-1.19c-2.66-1.9-5.45-3.63-8-5.69A7.16,7.16,0,0,0,78,54c-5.77,1.07-9.78,3.91-11.34,9.47-1.33,4.56-.88,9.12,0,13.52ZM48.14,150.12H101c.31-3.74-.75-4.87-4.49-4.87H51.74a3,3,0,0,0-3.14,1.89A16.64,16.64,0,0,0,48.14,150.12Zm31-26.11H70.27c-1.25,5-2.48,9.87-3.74,14.86H82.82c-1.26-5-2.48-9.87-3.73-14.86ZM95.5,55.82c2.33-2.68,4.61-5.3,7-8l-9.06-6.37-6.09,8.65Z"/><path d="M31.82,94.15a3.11,3.11,0,0,1-3,3.21,3.16,3.16,0,0,1-3.4-2.87,1.93,1.93,0,0,1,0-.34,3.12,3.12,0,0,1,3-3.22,3.17,3.17,0,0,1,3.39,2.88A1.93,1.93,0,0,1,31.82,94.15Z"/></g></g></g></g></svg>