<?xml version="1.0" encoding="utf-8"?>
<!-- Generator: Adobe Illustrator 26.0.1, SVG Export Plug-In . SVG Version: 6.00 Build 0)  -->
<svg version="1.1" id="Vrstva_1" xmlns="http://www.w3.org/2000/svg" xmlns:xlink="http://www.w3.org/1999/xlink" x="0px" y="0px"
	 viewBox="0 0 187.4 153" style="enable-background:new 0 0 187.4 153;" xml:space="preserve">
<style type="text/css">
	.st0{fill:none;stroke:#000000;stroke-width:9;stroke-linecap:round;stroke-miterlimit:10;}
	.st1{fill:none;stroke:#000000;stroke-width:6.2046;stroke-linecap:round;stroke-miterlimit:10;}
	.st2{fill:none;stroke:#000000;stroke-width:6.2046;stroke-linecap:round;stroke-linejoin:round;}
	.st3{fill:none;stroke:#000000;stroke-width:7.6293;stroke-linecap:round;stroke-linejoin:round;}
</style>
<g id="Vrstva_1-2">
	<path class="st0" d="M158.3,121.4c0,7.2-4.4,13.1-9.8,13.1H13c-5.4,0-9.7-5.9-9.7-13.1V16.3c0-7.2,4.4-13,9.7-13h135.5
		c5.4,0,9.8,5.8,9.8,13l0,0v13.5"/>
	<line class="st1" x1="3.5" y1="111.7" x2="130.5" y2="111.7"/>
	<polyline class="st2" points="97.5,38.9 124.5,58.6 97.5,77.9 	"/>
	<line class="st2" x1="86.5" y1="32.3" x2="75.5" y2="83.9"/>
	<line class="st2" x1="67.5" y1="123.5" x2="94.2" y2="123.5"/>
	<ellipse class="st2" cx="16" cy="122.9" rx="0.5" ry="0.5"/>
	<ellipse class="st2" cx="26" cy="122.9" rx="0.5" ry="0.5"/>
	<line class="st2" x1="72" y1="134.4" x2="72" y2="148.8"/>
	<line class="st2" x1="90.5" y1="134.4" x2="90.6" y2="148.7"/>
	<line class="st3" x1="52.3" y1="148.7" x2="109.2" y2="148.8"/>
	<polyline class="st2" points="65.5,38.9 38.5,58.6 65.5,77.9 	"/>
	<g id="T0ha2r.tif">
		<path d="M127.1,68.7c0.3-0.5,0.7-1,1.2-1.4c0.5-0.3,1.1-0.5,1.7-0.5l3.1-0.4c0.2,0,0.3-0.1,0.4-0.3c0.5-1.4,1.1-2.7,1.7-4.1
			c0.1-0.4,0.3-0.7,0.5-1.1c0.1-0.2,0.1-0.4-0.1-0.5c-0.8-1-1.5-1.9-2.3-2.9c-0.7-1-0.6-2.3,0.1-3.3c1.6-1.8,3.3-3.4,5.1-5
			c0.9-0.7,2.2-0.8,3.1-0.1c1.1,0.8,2.1,1.5,3.1,2.3c0.1,0.1,0.3,0.1,0.4,0c1.6-0.9,3.2-1.6,4.9-2.1c0.4-0.1,0.6-0.4,0.7-0.7
			c0.1-1.2,0.3-2.3,0.5-3.5c0.3-1.1,1.3-1.9,2.4-2h6.3c0.4,0,0.8,0,1.2,0.1c1.1,0.2,1.9,1.1,2,2.2c0.2,1.2,0.3,2.3,0.5,3.5
			c0,0.2,0.1,0.4,0.3,0.4c1.8,0.5,3.6,1.2,5.3,2.1c0.1,0.1,0.4,0.1,0.5,0c1-0.8,1.9-1.5,2.9-2.2c1-0.7,2.3-0.6,3.2,0.1
			c1.4,1.3,2.8,2.7,4.2,4c0.3,0.3,0.6,0.7,1,1.1c0.7,0.9,0.7,2.1,0.1,3c-0.7,1.1-1.5,2-2.3,2.9c-0.2,0.2-0.2,0.4-0.1,0.6
			c0.9,1.6,1.6,3.3,2.1,5c0,0.2,0.2,0.4,0.5,0.4c1.2,0.2,2.4,0.3,3.6,0.5c1.3,0.2,2.3,1.3,2.3,2.6c0,1.7,0,3.5,0.1,5.3
			c0,0.6-0.1,1.1-0.1,1.7c-0.1,1.1-1.1,2-2.2,2.2c-1.1,0.2-2.3,0.3-3.4,0.5c-0.3,0-0.6,0.2-0.7,0.5c-0.5,1.7-1.2,3.3-2,4.9
			c-0.2,0.2-0.1,0.6,0.1,0.7c0.7,0.9,1.5,1.8,2.1,2.7c0.9,1,0.8,2.5-0.2,3.5c-1.5,1.6-3.1,3.1-4.7,4.6c-1,1-2.6,1.1-3.7,0.2
			c-0.9-0.7-1.8-1.4-2.7-2.1c-0.2-0.1-0.4-0.1-0.5,0c-1.7,0.9-3.5,1.6-5.3,2.1c-0.2,0.1-0.2,0.2-0.3,0.4c-0.2,1.2-0.3,2.3-0.5,3.5
			c-0.2,1.3-1.2,2.2-2.5,2.3h-5.9c-0.5,0-0.9,0-1.4-0.1c-1.1-0.1-1.9-0.9-2.1-2c-0.2-1-0.4-2.1-0.5-3.2c0-0.6-0.4-1.1-0.9-1.2
			c-1.6-0.5-3.2-1.1-4.7-1.9c-0.2-0.1-0.4-0.1-0.6,0c-1,0.8-2,1.6-3.1,2.3c-0.9,0.5-2,0.5-2.9-0.1c-1.3-1.2-2.6-2.4-3.9-3.7
			c-0.5-0.5-0.9-1.1-1.4-1.5c-0.7-0.9-0.7-2.2-0.1-3.2c0.8-1,1.5-1.9,2.2-2.9l0.2-0.3c-0.3-0.7-0.7-1.3-1-2
			c-0.5-1.1-0.9-2.2-1.3-3.3c0-0.2-0.2-0.4-0.5-0.4c-1.1-0.1-2.3-0.3-3.4-0.5c-0.9-0.1-1.7-0.6-2.1-1.4c-0.1-0.2-0.2-0.4-0.3-0.5
			L127.1,68.7z M136.9,89.5c1.1,1.1,2.1,2,3.2,3c0.1,0.2,0.4,0.2,0.6,0.1l0.1-0.1l3.1-2.4c0.3-0.2,0.6-0.6,0.9-0.6
			c0.4,0.1,0.7,0.2,1,0.5c1.6,1,3.2,1.8,5,2.3c1.1,0.3,2.1,0.6,3.1,0.8c0.3,0.1,0.5,0.2,0.5,0.5c0.1,0.6,0.1,1.2,0.2,1.8l0.4,3.3
			h4.9c0.2-1.6,0.4-3.3,0.6-4.9c0.1-0.6,0.1-0.6,0.7-0.7c2.1-0.4,4.1-1.1,6-2c0.9-0.5,1.7-0.9,2.6-1.4c0.3-0.2,0.6-0.2,0.8,0.1
			c1.3,1.1,2.6,2.1,3.8,3l3.5-3.3l-3.5-4.2c0.1-0.1,0.1-0.2,0.2-0.3c1-1.4,1.9-3,2.5-4.6c0.5-1.3,0.8-2.7,1.2-4.1
			c0-0.2,0.2-0.3,0.4-0.4l2.9-0.3l2.4-0.3v-4.8h-0.4c-1.6-0.2-3.2-0.4-4.8-0.5c-0.2,0-0.4-0.2-0.4-0.4c0-0.1,0-0.2-0.1-0.3
			c-0.4-2.1-1.1-4.1-2.1-6c-0.4-0.8-0.9-1.5-1.3-2.3c-0.2-0.3-0.2-0.6,0.1-0.8c0.8-0.9,1.5-1.8,2.2-2.8c0.3-0.4,0.6-0.7,0.9-1.2
			l-3.5-3.2h-0.1l-3.7,2.9c-0.5,0.4-0.5,0.4-1,0.1c-1.2-0.6-2.4-1.3-3.7-1.9c-1.6-0.7-3.4-1.2-5.1-1.6c-0.2,0-0.3-0.1-0.3-0.3
			c-0.1-0.9-0.2-1.7-0.3-2.6c-0.1-0.9-0.2-1.7-0.3-2.6h-4.9c-0.2,1.5-0.3,2.9-0.5,4.4c-0.1,1.1,0.1,1-1.1,1.2
			c-2.5,0.5-4.9,1.4-7.1,2.7l-1.6,0.9l-4.3-3.4l-3.4,3.3l2.8,3.5c0.7,0.8,0.7,0.8,0.1,1.7c-1.3,1.9-2.2,4-2.8,6.2
			c-0.2,0.6-0.3,1.3-0.5,1.9c0,0.3-0.3,0.5-0.5,0.5c-1.1,0.1-2.3,0.3-3.4,0.4c-0.6,0.1-1.2,0.1-1.8,0.2v4.2c0,0.6,0,0.6,0.6,0.6
			l0.5,0.1l3.8,0.4c0.7,0.1,0.7,0.1,0.8,0.7c0.5,2.2,1.2,4.3,2.3,6.3c0.4,0.7,0.8,1.4,1.3,2.1c0.1,0.2,0.1,0.5-0.1,0.7
			C139,86.8,138,88.1,136.9,89.5z"/>
		<path d="M157.3,87.5c-8.3,0-15.1-6.6-15.1-14.8c0-8.2,6.8-14.8,15.1-14.8c8.2,0,14.9,6.5,15.1,14.6
			C172.5,81,165.1,87.8,157.3,87.5z M168.5,72.8c0-5.3-4.4-9.6-9.8-9.6c-5.4,0-9.8,4.4-9.8,9.7c0,5.3,4.4,9.6,9.8,9.6
			C164.2,82.4,168.5,78.2,168.5,72.8L168.5,72.8z"/>
	</g>
</g>
</svg>
