<svg xmlns="http://www.w3.org/2000/svg" viewBox="0 0 731.52 257.72"><defs><style>.cls-1{fill:#9a0000;}.cls-2{fill:#323232;}.cls-3{fill:#d6d6d6;}.cls-4{opacity:0.7;}</style></defs><g id="Vrstva_2" data-name="Vrstva 2"><g id="Vrstva_1-2" data-name="Vrstva 1"><path class="cls-1" d="M127.93,151.27v45.11a1.12,1.12,0,0,1-1.12,1.12H83.46a2.52,2.52,0,0,1-2.52-2.38l-.86-15.06a2.37,2.37,0,0,0-1.56-2.23A14.66,14.66,0,0,1,69,163.62a14.11,14.11,0,0,1,1.32-5.39,14.36,14.36,0,0,1,13.11-8.07h43.35A1.1,1.1,0,0,1,127.93,151.27Z"/><path class="cls-1" d="M208.81,174.05a15.43,15.43,0,0,0-5.15-.34l-.21,0a13.29,13.29,0,0,0-11.57,13.32v16.28H70.72V187.05a13.29,13.29,0,0,0-11.57-13.32l-.21,0a15.67,15.67,0,0,0-5.38.4A13.18,13.18,0,0,0,43.79,187v37.66A6.21,6.21,0,0,0,50,230.84H61.19a1.94,1.94,0,0,1,1.94,1.94L64,244.63a1.61,1.61,0,0,0,1.61,1.49h6a1.62,1.62,0,0,0,1.61-1.49l.89-12.18A1.88,1.88,0,0,1,76,230.57H186.63a1.88,1.88,0,0,1,1.88,1.88l.89,12.18a1.61,1.61,0,0,0,1.61,1.49h6a1.62,1.62,0,0,0,1.61-1.49l.89-11.85a1.94,1.94,0,0,1,1.94-1.94H212.6a6.21,6.21,0,0,0,6.21-6.21V187A13.28,13.28,0,0,0,208.81,174.05Z"/><path class="cls-1" d="M134.67,151.27v45.11a1.12,1.12,0,0,0,1.12,1.12h43.35a2.52,2.52,0,0,0,2.52-2.38l.86-15.06a2.37,2.37,0,0,1,1.56-2.23,14.66,14.66,0,0,0,9.49-14.21,14.11,14.11,0,0,0-1.32-5.39,14.36,14.36,0,0,0-13.11-8.07H135.79A1.1,1.1,0,0,0,134.67,151.27Z"/><path class="cls-2" d="M429.81,148.06H255.59a21.94,21.94,0,0,1-15.49-6.41L133.32,34.87a2.68,2.68,0,0,0-3.81,0L19.89,144.48a11.64,11.64,0,0,1-18.17-2.15h0A11.65,11.65,0,0,1,3.41,128l128-128h0l37.1,37.1h77.75V2.76A2.15,2.15,0,0,1,248.42.61h39a2.15,2.15,0,0,1,2.15,2.15V37.1H329l103.7,104A4.07,4.07,0,0,1,429.81,148.06Z"/><polygon class="cls-3" points="150.36 51.9 151.28 52.82 150.36 52.82 150.36 51.9"/><path d="M260.41,169.63v51.09h17.12v14.42h-31.4V169.63Z"/><path d="M316.36,184.05h-17V195h16v14.43h-16v11.29h17v14.42H285.11V169.63h31.25Z"/><path d="M326.85,235.14V169.63h14.28l26.37,40.06V169.63h14.21v65.51H367.5l-26.37-40v40Z"/><path d="M407.72,196.65l17.41-27h17.63l-21.78,31,23.82,34.49H426.3l-18.58-28.41v28.41H393.44V169.63h14.28Z"/><path d="M485,223.76h-20.4l-3.27,11.38H446.11L467,169.63h15.59l20.91,65.51H488.29Zm-3.78-12.94L474.81,189l-6.41,21.81Z"/><path d="M550.83,163.48h8v71.66h-8v-4.32q-4.74,5.51-10.71,5.51-7.11,0-11.81-6.19t-4.66-15.78q0-9.26,4.66-15.45t11.63-6.23c4.06,0,7.68,2,10.89,5.93Zm-19,50.88A16.24,16.24,0,0,0,534.5,224a8.21,8.21,0,0,0,6.9,3.77,8.58,8.58,0,0,0,7.19-3.64,18.21,18.21,0,0,0,0-19.18,8.48,8.48,0,0,0-7.12-3.69,8.31,8.31,0,0,0-6.9,3.73A15.46,15.46,0,0,0,531.83,214.36Z"/><path d="M600.74,216.73H575.91a13.86,13.86,0,0,0,2.77,8.1,7.79,7.79,0,0,0,6.3,3,7.31,7.31,0,0,0,4.95-1.69,23.77,23.77,0,0,0,4.37-6.28l6.76,4.5a32.72,32.72,0,0,1-3.31,5.45,18.8,18.8,0,0,1-3.73,3.73,13.69,13.69,0,0,1-4.31,2.14,17.44,17.44,0,0,1-5,.68,15.08,15.08,0,0,1-12.45-5.94q-4.69-6-4.7-15.86t4.55-15.87a14.58,14.58,0,0,1,12.17-6,14.38,14.38,0,0,1,12.09,5.81q4.41,5.76,4.41,16Zm-8.22-7.81q-1.66-7.63-8.07-7.63a6.93,6.93,0,0,0-2.74.53,7.35,7.35,0,0,0-2.33,1.53,9.32,9.32,0,0,0-1.8,2.39,12.44,12.44,0,0,0-1.14,3.18Z"/><path d="M629.84,200.86l-6.61,4.2q-1.58-3.81-3.88-3.81a2.45,2.45,0,0,0-1.89.87,3.2,3.2,0,0,0-.78,2.22q0,2.39,4.63,4.71,6.36,3.27,8.57,6a11.55,11.55,0,0,1,2.2,7.42,14.21,14.21,0,0,1-3.7,10,11.45,11.45,0,0,1-8.68,3.82q-8.72,0-12.34-10.14l6.83-3.77a17.76,17.76,0,0,0,2.17,3.77,4.53,4.53,0,0,0,3.49,1.61q4,0,4-4.41c0-1.69-1-3.28-3.13-4.75-.8-.48-1.61-.95-2.42-1.4l-2.45-1.4a15.45,15.45,0,0,1-4.91-4.07,11.36,11.36,0,0,1-1.81-6.66,13,13,0,0,1,3.09-8.91,9.94,9.94,0,0,1,7.68-3.52Q626.61,192.68,629.84,200.86Z"/><path d="M638.28,176.64a6.53,6.53,0,0,1,1.53-4.33,4.63,4.63,0,0,1,7.36,0,6.47,6.47,0,0,1,1.53,4.37,6.61,6.61,0,0,1-1.53,4.41,4.56,4.56,0,0,1-3.66,1.83,4.66,4.66,0,0,1-3.7-1.83A6.68,6.68,0,0,1,638.28,176.64Zm9.21,17.18v41.32h-8V193.82Z"/><path d="M691.36,234.17c0,2-.06,3.67-.16,5.15s-.26,2.8-.45,3.93a19,19,0,0,1-3.34,8,15.09,15.09,0,0,1-12.91,6.45,15.52,15.52,0,0,1-11.42-4.46q-4.64-4.57-5.34-12.68h8a12.15,12.15,0,0,0,1.53,4.7,8.1,8.1,0,0,0,7.26,3.87q8.79,0,8.78-12.86v-5.77q-4.76,5.82-11,5.81a13.81,13.81,0,0,1-11.59-6.11q-4.56-6.19-4.56-15.48,0-9,4.24-15.36,4.54-6.7,12-6.7,6.54,0,10.88,5.81v-4.67h8Zm-7.69-19.6q0-6-2.7-9.63a8.38,8.38,0,0,0-7-3.69,8.16,8.16,0,0,0-7.18,4,19.25,19.25,0,0,0,0,18.58A8.14,8.14,0,0,0,674,227.8a8.3,8.3,0,0,0,7.26-4A16.1,16.1,0,0,0,683.67,214.57Z"/><path d="M701.68,193.82h8v3.82q4.2-5,9.46-5a11.11,11.11,0,0,1,9.43,4.53q2.91,3.87,2.91,12.61v25.32h-8V212.06q0-6.1-1.42-8.44c-.92-1.58-2.61-2.37-5-2.37a5.88,5.88,0,0,0-5.66,3.14q-1.64,3.09-1.63,10.81v19.94h-8Z"/><path class="cls-4" d="M30.46,133.92,19.9,144.48A11.65,11.65,0,0,1,0,136.25a11.37,11.37,0,0,1,.24-2.33Z"/><path class="cls-4" d="M429.56,148.06H255.48a21.63,21.63,0,0,1-15.3-6.34l-7.8-7.8H425.53l7,7A4.18,4.18,0,0,1,429.56,148.06Z"/></g></g></svg>